<?xml version="1.0" encoding="UTF-8" standalone="no"?>
<svg
   xmlns:dc="http://purl.org/dc/elements/1.1/"
   xmlns:cc="http://creativecommons.org/ns#"
   xmlns:rdf="http://www.w3.org/1999/02/22-rdf-syntax-ns#"
   xmlns:svg="http://www.w3.org/2000/svg"
   xmlns="http://www.w3.org/2000/svg"
   xmlns:sodipodi="http://sodipodi.sourceforge.net/DTD/sodipodi-0.dtd"
   xmlns:inkscape="http://www.inkscape.org/namespaces/inkscape"
   width="24"
   height="24"
   viewBox="0 0 24 24"
   version="1.1"
   id="svg3725"
   sodipodi:docname="whatschat-icon.svg"
   inkscape:version="0.92.3 (2405546, 2018-03-11)">
  <metadata
     id="metadata3731">
    <rdf:RDF>
      <cc:Work
         rdf:about="">
        <dc:format>image/svg+xml</dc:format>
        <dc:type
           rdf:resource="http://purl.org/dc/dcmitype/StillImage" />
        <dc:title />
      </cc:Work>
    </rdf:RDF>
  </metadata>
  <defs
     id="defs3729" />
  <sodipodi:namedview
     pagecolor="#ffffff"
     bordercolor="#666666"
     borderopacity="1"
     objecttolerance="10"
     gridtolerance="10"
     guidetolerance="10"
     inkscape:pageopacity="0"
     inkscape:pageshadow="2"
     inkscape:window-width="1452"
     inkscape:window-height="783"
     id="namedview3727"
     showgrid="false"
     inkscape:zoom="18.621111"
     inkscape:cx="12"
     inkscape:cy="13.076445"
     inkscape:window-x="182"
     inkscape:window-y="182"
     inkscape:window-maximized="1"
     inkscape:current-layer="svg3725" />
  <path
     d="m 4.6046833,16.052867 1.04462,-4.135819 C 5.0046978,10.706434 4.6659857,9.334091 4.666605,7.926853 c 0.00186,-4.3995496 3.3053837,-7.9797202 7.364355,-7.9797202 1.969731,6.711e-4 3.818715,0.8321297 5.209478,2.3407001 1.390143,1.5085705 2.155496,3.5137343 2.154878,5.6464021 -0.0018,4.40022 -3.305384,7.980391 -7.364356,7.980391 -1.232243,-6.7e-4 -2.4465285,-0.335536 -3.5221096,-0.971712 z m 4.0849786,-2.554772 c 1.0378088,0.667717 2.0285571,1.067676 3.3388211,1.068347 3.373498,0 6.121586,-2.975534 6.123443,-6.63355 0.0012,-3.6653958 -2.733845,-6.6369039 -6.118489,-6.638246 -3.3759743,0 -6.1222046,2.9755342 -6.123443,6.632878 -6.192e-4,1.493136 0.4031107,2.611142 1.081154,3.780821 L 6.3725496,14.156416 Z M 15.740693,9.831357 C 15.694863,9.748147 15.572266,9.698484 15.387739,9.598495 15.203831,9.498505 14.299155,9.016003 14.130108,8.949567 c -0.168427,-0.06644 -0.291032,-0.09999 -0.414257,0.09999 -0.122606,0.199308 -0.475559,0.648927 -0.582684,0.7818 -0.107124,0.132872 -0.214869,0.149648 -0.398776,0.04966 -0.183907,-0.09999 -0.777118,-0.310035 -1.47993,-0.989831 -0.546769,-0.528809 -0.916442,-1.181762 -1.023566,-1.381741 -0.107125,-0.199309 -0.01115,-0.307351 0.0805,-0.40667 0.08297,-0.08925 0.183907,-0.232862 0.276171,-0.349629 0.0935,-0.115424 0.123843,-0.198637 0.185765,-0.332181 0.06131,-0.132872 0.03096,-0.249638 -0.01548,-0.349628 C 10.711411,5.972017 10.343592,4.9902412 10.190646,4.5909532 10.040795,4.2024022 9.8890865,4.2547452 9.7763889,4.2487062 l -0.352954,-0.0067 c -0.1226051,0 -0.3219932,0.04966 -0.4904204,0.249639 -0.1684272,0.199978 -0.6439863,0.681808 -0.6439863,1.6635858 0,0.981779 0.6594667,1.930004 0.751111,2.062877 0.092263,0.132873 1.2972608,2.147431 3.1431488,3.011101 0.439024,0.205348 0.782071,0.328154 1.048954,0.420091 0.440883,0.151662 0.842136,0.130188 1.159176,0.07918 0.353573,-0.05705 1.088584,-0.482502 1.24215,-0.948226 0.153566,-0.466395 0.153566,-0.865683 0.107125,-0.948895 z"
     id="path3723"
     style="fill:#ffffff;stroke-width:0.64462376"
     inkscape:connector-curvature="0" />
</svg>
